%TF.GenerationSoftware,KiCad,Pcbnew,9.0.5*%
%TF.CreationDate,2026-03-19T19:39:03+01:00*%
%TF.ProjectId,seminarskirad,73656d69-6e61-4727-936b-697261642e6b,rev?*%
%TF.SameCoordinates,Original*%
%TF.FileFunction,Soldermask,Top*%
%TF.FilePolarity,Negative*%
%FSLAX46Y46*%
G04 Gerber Fmt 4.6, Leading zero omitted, Abs format (unit mm)*
G04 Created by KiCad (PCBNEW 9.0.5) date 2026-03-19 19:39:03*
%MOMM*%
%LPD*%
G01*
G04 APERTURE LIST*
G04 Aperture macros list*
%AMRoundRect*
0 Rectangle with rounded corners*
0 $1 Rounding radius*
0 $2 $3 $4 $5 $6 $7 $8 $9 X,Y pos of 4 corners*
0 Add a 4 corners polygon primitive as box body*
4,1,4,$2,$3,$4,$5,$6,$7,$8,$9,$2,$3,0*
0 Add four circle primitives for the rounded corners*
1,1,$1+$1,$2,$3*
1,1,$1+$1,$4,$5*
1,1,$1+$1,$6,$7*
1,1,$1+$1,$8,$9*
0 Add four rect primitives between the rounded corners*
20,1,$1+$1,$2,$3,$4,$5,0*
20,1,$1+$1,$4,$5,$6,$7,0*
20,1,$1+$1,$6,$7,$8,$9,0*
20,1,$1+$1,$8,$9,$2,$3,0*%
G04 Aperture macros list end*
%ADD10R,1.700000X1.700000*%
%ADD11C,1.700000*%
%ADD12RoundRect,0.249999X-0.850001X-0.850001X0.850001X-0.850001X0.850001X0.850001X-0.850001X0.850001X0*%
%ADD13C,2.200000*%
%ADD14C,3.200000*%
%ADD15C,1.900000*%
%ADD16RoundRect,0.250000X-0.700000X-0.700000X0.700000X-0.700000X0.700000X0.700000X-0.700000X0.700000X0*%
%ADD17C,1.600000*%
%ADD18R,1.800000X1.800000*%
%ADD19C,1.800000*%
%ADD20RoundRect,0.250000X0.550000X0.550000X-0.550000X0.550000X-0.550000X-0.550000X0.550000X-0.550000X0*%
%ADD21RoundRect,0.250000X-0.550000X-0.550000X0.550000X-0.550000X0.550000X0.550000X-0.550000X0.550000X0*%
%ADD22C,2.340000*%
%ADD23R,1.500000X1.050000*%
%ADD24O,1.500000X1.050000*%
%ADD25R,1.905000X2.000000*%
%ADD26O,1.905000X2.000000*%
%ADD27RoundRect,0.250000X-0.550000X0.550000X-0.550000X-0.550000X0.550000X-0.550000X0.550000X0.550000X0*%
G04 APERTURE END LIST*
D10*
%TO.C,R1*%
X103000000Y-95775000D03*
D11*
X103000000Y-93235000D03*
%TD*%
D10*
%TO.C,J1*%
X100000000Y-79975000D03*
D11*
X100000000Y-82515000D03*
%TD*%
D12*
%TO.C,D3*%
X149500000Y-52500000D03*
D13*
X159660000Y-52500000D03*
%TD*%
D14*
%TO.C,MH*%
X176250000Y-45250000D03*
%TD*%
D15*
%TO.C,K1*%
X157690000Y-76500000D03*
X165310000Y-76500000D03*
X157690000Y-63800000D03*
X165310000Y-63800000D03*
D16*
X157690000Y-66340000D03*
D15*
X165310000Y-66340000D03*
%TD*%
D17*
%TO.C,R4*%
X118190000Y-79000000D03*
X125810000Y-79000000D03*
%TD*%
%TO.C,R6*%
X144310000Y-106250000D03*
X136690000Y-106250000D03*
%TD*%
D18*
%TO.C,D1*%
X119225000Y-66750000D03*
D19*
X121765000Y-66750000D03*
%TD*%
D20*
%TO.C,C1*%
X109955113Y-49500000D03*
D17*
X107455113Y-49500000D03*
%TD*%
D18*
%TO.C,D2*%
X137475000Y-51750000D03*
D19*
X140015000Y-51750000D03*
%TD*%
D14*
%TO.C,MH*%
X90250000Y-113250000D03*
%TD*%
D21*
%TO.C,C2*%
X99794888Y-64500000D03*
D17*
X102294888Y-64500000D03*
%TD*%
D14*
%TO.C,MH*%
X90250000Y-45250000D03*
%TD*%
D22*
%TO.C,RV1*%
X116000000Y-91755000D03*
X121000000Y-94255000D03*
X116000000Y-96755000D03*
%TD*%
D23*
%TO.C,Q1*%
X155860000Y-91770000D03*
D24*
X155860000Y-93040000D03*
X155860000Y-94310000D03*
%TD*%
D10*
%TO.C,J2*%
X176750000Y-69000000D03*
D11*
X176750000Y-71540000D03*
%TD*%
D25*
%TO.C,U1*%
X100210000Y-57500000D03*
D26*
X102750000Y-57500000D03*
X105290000Y-57500000D03*
%TD*%
D17*
%TO.C,R2*%
X124690000Y-109250000D03*
X132310000Y-109250000D03*
%TD*%
D14*
%TO.C,MH*%
X176250000Y-113250000D03*
%TD*%
D27*
%TO.C,U2*%
X142060000Y-68695000D03*
D17*
X139520000Y-68695000D03*
X136980000Y-68695000D03*
X134440000Y-68695000D03*
X134440000Y-76315000D03*
X136980000Y-76315000D03*
X139520000Y-76315000D03*
X142060000Y-76315000D03*
%TD*%
%TO.C,R3*%
X127250000Y-95500000D03*
X134870000Y-95500000D03*
%TD*%
%TO.C,C3*%
X117000000Y-58500000D03*
X117000000Y-56000000D03*
%TD*%
%TO.C,R5*%
X159620000Y-106500000D03*
X152000000Y-106500000D03*
%TD*%
%TO.C,C4*%
X98250000Y-71250000D03*
X100750000Y-71250000D03*
%TD*%
M02*
