M48
; DRILL file {KiCad 9.0.5} date 2026-03-19T19:40:51+0100
; FORMAT={-:-/ absolute / metric / decimal}
; #@! TF.CreationDate,2026-03-19T19:40:51+01:00
; #@! TF.GenerationSoftware,Kicad,Pcbnew,9.0.5
; #@! TF.FileFunction,Plated,1,2,PTH
FMAT,2
METRIC
; #@! TA.AperFunction,Plated,PTH,ViaDrill
T1C0.300
; #@! TA.AperFunction,Plated,PTH,ComponentDrill
T2C0.750
; #@! TA.AperFunction,Plated,PTH,ComponentDrill
T3C0.800
; #@! TA.AperFunction,Plated,PTH,ComponentDrill
T4C0.900
; #@! TA.AperFunction,Plated,PTH,ComponentDrill
T5C1.000
; #@! TA.AperFunction,Plated,PTH,ComponentDrill
T6C1.050
; #@! TA.AperFunction,Plated,PTH,ComponentDrill
T7C1.100
; #@! TA.AperFunction,Plated,PTH,ComponentDrill
T8C1.300
%
G90
G05
T1
X135.0Y-100.0
X135.5Y-90.25
X137.25Y-88.25
X138.25Y-100.0
X139.0Y-94.5
X141.5Y-92.0
X144.0Y-95.75
X144.25Y-92.75
X146.75Y-69.5
X147.75Y-72.75
X147.75Y-92.75
X147.75Y-95.5
T2
X155.86Y-91.77
X155.86Y-93.04
X155.86Y-94.31
T3
X98.25Y-71.25
X99.795Y-64.5
X100.75Y-71.25
X102.295Y-64.5
X107.455Y-49.5
X109.955Y-49.5
X117.0Y-56.0
X117.0Y-58.5
X118.19Y-79.0
X124.69Y-109.25
X125.81Y-79.0
X127.25Y-95.5
X132.31Y-109.25
X134.44Y-68.695
X134.44Y-76.315
X134.87Y-95.5
X136.69Y-106.25
X136.98Y-68.695
X136.98Y-76.315
X139.52Y-68.695
X139.52Y-76.315
X142.06Y-68.695
X142.06Y-76.315
X144.31Y-106.25
X152.0Y-106.5
X159.62Y-106.5
T4
X119.225Y-66.75
X121.765Y-66.75
X137.475Y-51.75
X140.015Y-51.75
T5
X100.0Y-79.975
X100.0Y-82.515
X103.0Y-93.235
X103.0Y-95.775
X176.75Y-69.0
X176.75Y-71.54
T6
X157.69Y-63.8
X157.69Y-66.34
X157.69Y-76.5
X165.31Y-63.8
X165.31Y-66.34
X165.31Y-76.5
T7
X100.21Y-57.5
X102.75Y-57.5
X105.29Y-57.5
X149.5Y-52.5
X159.66Y-52.5
T8
X116.0Y-91.755
X116.0Y-96.755
X121.0Y-94.255
M30
